<?xml version="1.0" encoding="UTF-8" standalone="no"?><!-- Generator: Gravit.io --><svg xmlns="http://www.w3.org/2000/svg" xmlns:xlink="http://www.w3.org/1999/xlink" style="isolation:isolate" viewBox="0 0 30 30" width="30pt" height="30pt"><defs><clipPath id="_clipPath_drUNOMgBGge5nLftlQz44myzce77qUNn"><rect width="30" height="30"/></clipPath></defs><g clip-path="url(#_clipPath_drUNOMgBGge5nLftlQz44myzce77qUNn)"><path d=" M 28.464 10.048 L 20.271 8.8 L 16.609 1.044 C 15.953 -0.339 14.052 -0.357 13.391 1.044 L 9.729 8.8 L 1.536 10.048 C 0.067 10.271 -0.521 12.163 0.544 13.247 L 6.471 19.282 L 5.069 27.806 C 4.817 29.347 6.37 30.501 7.671 29.78 L 15 25.755 L 22.329 29.78 C 23.63 30.495 25.183 29.347 24.931 27.806 L 23.529 19.282 L 29.456 13.247 C 30.521 12.163 29.933 10.271 28.464 10.048 L 28.464 10.048 Z  M 20.641 18.297 L 21.97 26.406 L 15 22.58 L 8.03 26.406 L 9.359 18.297 L 3.718 12.556 L 11.512 11.372 L 15 3.99 L 18.488 11.372 L 26.282 12.556 L 20.641 18.297 L 20.641 18.297 Z " fill="rgb(131,149,167)"/></g></svg>